<svg width="300" height="85" viewBox="0 0 300 85" fill="none" xmlns="http://www.w3.org/2000/svg">
<path d="M113.345 30.737C113.107 30.737 112.903 30.669 112.733 30.533C112.597 30.363 112.529 30.193 112.529 30.023C112.529 29.853 112.614 29.615 112.784 29.309C112.954 29.003 113.039 28.714 113.039 28.442C113.039 27.66 112.631 27.099 111.815 26.759C111.033 26.385 110.217 26.198 109.367 26.198C106.851 26.198 104.216 27.048 101.462 28.748C98.742 30.448 97.144 32.488 96.668 34.868C96.838 36.296 97.535 37.639 98.759 38.897C100.017 40.121 101.462 41.192 103.094 42.11C104.726 42.994 106.341 43.895 107.939 44.813C109.537 45.731 110.88 46.819 111.968 48.077C113.056 49.335 113.6 50.627 113.6 51.953C113.6 53.245 113.124 54.52 112.172 55.778C111.22 57.002 110.268 58.039 109.316 58.889C108.398 59.739 107.939 60.198 107.939 60.266C107.939 60.3 107.99 60.317 108.092 60.317C110.166 60.317 113.005 59.178 116.609 56.9L117.119 56.543C117.357 56.407 117.527 56.339 117.629 56.339C117.765 56.339 117.901 56.441 118.037 56.645C118.173 56.849 118.241 57.07 118.241 57.308C118.241 57.546 118.02 57.784 117.578 58.022C115.606 59.892 111.917 61.677 106.511 63.377C101.139 65.077 96.277 65.927 91.925 65.927C85.975 65.927 83 64.193 83 60.725C83 60.215 83.51 59.484 84.53 58.532C86.094 57.104 87.046 56.39 87.386 56.39C87.726 56.39 88.593 56.815 89.987 57.665C91.381 58.515 93.132 59.365 95.24 60.215C97.348 61.065 99.439 61.49 101.513 61.49C103.587 61.49 105.168 60.844 106.256 59.552C107.378 58.26 107.939 56.934 107.939 55.574C107.939 54.214 107.361 52.99 106.205 51.902C105.049 50.814 103.638 49.862 101.972 49.046C100.34 48.196 98.691 47.329 97.025 46.445C95.359 45.561 93.948 44.49 92.792 43.232C91.636 41.974 91.058 40.597 91.058 39.101C91.058 36.687 92.401 34.154 95.087 31.502C97.773 28.85 100.85 26.708 104.318 25.076C107.786 23.444 110.744 22.628 113.192 22.628C116.252 22.628 117.782 23.648 117.782 25.688C117.782 26.912 117.221 28.068 116.099 29.156C115.011 30.21 114.093 30.737 113.345 30.737ZM120.252 56.135C120.83 55.931 121.408 55.285 121.986 54.197C122.598 53.075 122.904 52.157 122.904 51.443C122.904 50.729 122.632 50.355 122.088 50.321C121.272 50.321 120.694 50.695 120.354 51.443C120.014 52.157 119.844 52.956 119.844 53.84C119.844 54.69 119.98 55.455 120.252 56.135ZM124.638 59.45C125.59 59.45 126.372 59.246 126.984 58.838C127.63 58.396 128.225 57.835 128.769 57.155C129.347 56.475 129.789 56.135 130.095 56.135C130.435 56.135 130.605 56.288 130.605 56.594C130.605 56.798 130.537 57.036 130.401 57.308C129.279 59.11 127.885 60.691 126.219 62.051C124.553 63.445 122.785 64.142 120.915 64.142C119.045 64.142 117.685 63.683 116.835 62.765C116.019 61.881 115.611 60.691 115.611 59.195C115.611 56.611 116.58 53.976 118.518 51.29C120.456 48.57 122.462 47.21 124.536 47.21C125.624 47.21 126.168 47.652 126.168 48.536C126.168 49.726 125.794 50.967 125.046 52.259C124.298 53.517 122.921 55.234 120.915 57.41C121.833 58.77 123.074 59.45 124.638 59.45ZM132.86 55.421C132.86 56.611 133.217 57.631 133.931 58.481C134.645 59.297 135.58 59.705 136.736 59.705C137.926 59.705 138.895 59.569 139.643 59.297C140.425 58.991 141.02 58.702 141.428 58.43C141.836 58.124 142.142 57.971 142.346 57.971C142.652 57.971 142.805 58.124 142.805 58.43C142.805 59.484 141.819 60.725 139.847 62.153C137.875 63.615 135.58 64.346 132.962 64.346C131.296 64.346 130.038 63.921 129.188 63.071C128.372 62.255 127.964 61.167 127.964 59.807C127.964 57.359 129.001 54.928 131.075 52.514C133.183 50.066 135.597 48.842 138.317 48.842C138.963 48.842 139.473 49.046 139.847 49.454C140.255 49.828 140.459 50.389 140.459 51.137C140.459 51.851 140.034 52.667 139.184 53.585C138.368 54.469 137.535 54.911 136.685 54.911C136.447 54.911 136.328 54.792 136.328 54.554C136.328 54.316 136.447 54.061 136.685 53.789C136.957 53.517 137.093 53.194 137.093 52.82C137.093 52.412 136.957 52.021 136.685 51.647C136.447 51.273 136.175 51.086 135.869 51.086C134.951 51.086 134.22 51.511 133.676 52.361C133.132 53.177 132.86 54.197 132.86 55.421ZM142.629 55.319L141.252 55.421C140.64 55.421 140.334 55.268 140.334 54.962C140.334 54.486 140.929 53.585 142.119 52.259C143.343 50.899 144.431 50.219 145.383 50.219C145.791 50.219 146.148 50.338 146.454 50.576C146.794 50.814 146.981 51.103 147.015 51.443L147.27 53.738C147.372 53.874 147.474 53.942 147.576 53.942C147.678 53.942 147.95 53.67 148.392 53.126C149.82 51.46 151.095 50.627 152.217 50.627C152.659 50.627 153.016 50.695 153.288 50.831C153.56 50.967 153.866 51.239 154.206 51.647C154.58 52.021 154.784 52.225 154.818 52.259C155.056 52.157 155.294 52.106 155.532 52.106C155.906 52.106 156.093 52.344 156.093 52.82C156.093 53.262 155.43 54.112 154.104 55.37C152.778 56.594 151.792 57.206 151.146 57.206C150.5 57.206 149.956 56.917 149.514 56.339C149.072 55.761 148.749 55.472 148.545 55.472C147.763 55.472 147.372 55.88 147.372 56.696C147.372 57.308 147.644 58.345 148.188 59.807C148.766 61.269 149.055 62.136 149.055 62.408C149.055 63.088 148.698 63.615 147.984 63.989C147.304 64.397 146.539 64.601 145.689 64.601C144.873 64.601 144.21 64.465 143.7 64.193C143.19 63.921 142.935 63.547 142.935 63.071L144.363 56.9C144.363 55.846 143.785 55.319 142.629 55.319ZM160.644 56.135C161.222 55.931 161.8 55.285 162.378 54.197C162.99 53.075 163.296 52.157 163.296 51.443C163.296 50.729 163.024 50.355 162.48 50.321C161.664 50.321 161.086 50.695 160.746 51.443C160.406 52.157 160.236 52.956 160.236 53.84C160.236 54.69 160.372 55.455 160.644 56.135ZM165.03 59.45C165.982 59.45 166.764 59.246 167.376 58.838C168.022 58.396 168.617 57.835 169.161 57.155C169.739 56.475 170.181 56.135 170.487 56.135C170.827 56.135 170.997 56.288 170.997 56.594C170.997 56.798 170.929 57.036 170.793 57.308C169.671 59.11 168.277 60.691 166.611 62.051C164.945 63.445 163.177 64.142 161.307 64.142C159.437 64.142 158.077 63.683 157.227 62.765C156.411 61.881 156.003 60.691 156.003 59.195C156.003 56.611 156.972 53.976 158.91 51.29C160.848 48.57 162.854 47.21 164.928 47.21C166.016 47.21 166.56 47.652 166.56 48.536C166.56 49.726 166.186 50.967 165.438 52.259C164.69 53.517 163.313 55.234 161.307 57.41C162.225 58.77 163.466 59.45 165.03 59.45ZM160.043 46.343C160.043 45.663 160.587 45.153 161.675 44.813C163.341 44.099 166.061 42.994 169.835 41.498C170.515 36.33 171.535 33.746 172.895 33.746C173.779 33.746 174.221 35.157 174.221 37.979C174.221 38.795 174.204 39.407 174.17 39.815C179.338 37.843 182.806 36.636 184.574 36.194C186.342 35.752 187.753 35.531 188.807 35.531C190.405 35.531 191.204 36.109 191.204 37.265C191.204 37.639 190.966 37.945 190.49 38.183C188.382 39.237 187.073 39.764 186.563 39.764C186.461 39.764 186.291 39.696 186.053 39.56C185.815 39.39 185.543 39.305 185.237 39.305C184.931 39.305 184.302 39.424 183.35 39.662C181.412 40.172 178.233 41.158 173.813 42.62C173.405 45.272 172.81 47.176 172.028 48.332C172.164 52.208 172.674 54.826 173.558 56.186C173.966 56.832 174.544 57.393 175.292 57.869C176.074 58.345 177.026 58.583 178.148 58.583C179.27 58.583 180.375 58.073 181.463 57.053C181.667 56.849 181.837 56.747 181.973 56.747C182.245 56.747 182.381 56.968 182.381 57.41C182.381 58.838 181.429 60.283 179.525 61.745C177.621 63.173 175.802 63.887 174.068 63.887C170.634 63.887 168.917 61.099 168.917 55.523C168.917 52.021 169.121 48.247 169.529 44.201C166.707 45.289 164.633 46.173 163.307 46.853C161.947 47.533 161.148 47.873 160.91 47.873C160.672 47.873 160.468 47.703 160.298 47.363C160.128 47.023 160.043 46.683 160.043 46.343ZM223.214 30.737C222.976 30.737 222.772 30.669 222.602 30.533C222.466 30.363 222.398 30.193 222.398 30.023C222.398 29.853 222.483 29.615 222.653 29.309C222.823 29.003 222.908 28.714 222.908 28.442C222.908 27.66 222.5 27.099 221.684 26.759C220.902 26.385 220.086 26.198 219.236 26.198C216.72 26.198 214.085 27.048 211.331 28.748C208.611 30.448 207.013 32.488 206.537 34.868C206.707 36.296 207.404 37.639 208.628 38.897C209.886 40.121 211.331 41.192 212.963 42.11C214.595 42.994 216.21 43.895 217.808 44.813C219.406 45.731 220.749 46.819 221.837 48.077C222.925 49.335 223.469 50.627 223.469 51.953C223.469 53.245 222.993 54.52 222.041 55.778C221.089 57.002 220.137 58.039 219.185 58.889C218.267 59.739 217.808 60.198 217.808 60.266C217.808 60.3 217.859 60.317 217.961 60.317C220.035 60.317 222.874 59.178 226.478 56.9L226.988 56.543C227.226 56.407 227.396 56.339 227.498 56.339C227.634 56.339 227.77 56.441 227.906 56.645C228.042 56.849 228.11 57.07 228.11 57.308C228.11 57.546 227.889 57.784 227.447 58.022C225.475 59.892 221.786 61.677 216.38 63.377C211.008 65.077 206.146 65.927 201.794 65.927C195.844 65.927 192.869 64.193 192.869 60.725C192.869 60.215 193.379 59.484 194.399 58.532C195.963 57.104 196.915 56.39 197.255 56.39C197.595 56.39 198.462 56.815 199.856 57.665C201.25 58.515 203.001 59.365 205.109 60.215C207.217 61.065 209.308 61.49 211.382 61.49C213.456 61.49 215.037 60.844 216.125 59.552C217.247 58.26 217.808 56.934 217.808 55.574C217.808 54.214 217.23 52.99 216.074 51.902C214.918 50.814 213.507 49.862 211.841 49.046C210.209 48.196 208.56 47.329 206.894 46.445C205.228 45.561 203.817 44.49 202.661 43.232C201.505 41.974 200.927 40.597 200.927 39.101C200.927 36.687 202.27 34.154 204.956 31.502C207.642 28.85 210.719 26.708 214.187 25.076C217.655 23.444 220.613 22.628 223.061 22.628C226.121 22.628 227.651 23.648 227.651 25.688C227.651 26.912 227.09 28.068 225.968 29.156C224.88 30.21 223.962 30.737 223.214 30.737ZM239.046 55.472L238.842 56.9C238.842 57.512 239.097 58.158 239.607 58.838C240.151 59.484 240.78 59.807 241.494 59.807C242.038 59.807 242.48 59.688 242.82 59.45C243.568 58.94 244.027 58.6 244.197 58.43C244.401 58.226 244.707 58.124 245.115 58.124C245.557 58.124 245.778 58.277 245.778 58.583C245.778 58.923 244.979 59.994 243.381 61.796C242.871 62.374 242.123 62.986 241.137 63.632C240.151 64.278 239.267 64.601 238.485 64.601C237.737 64.601 237.159 64.465 236.751 64.193C236.377 63.955 236.105 63.564 235.935 63.02C235.731 62.272 235.629 61.354 235.629 60.266C235.629 60.13 235.544 60.062 235.374 60.062C235.204 60.062 234.813 60.402 234.201 61.082C232.297 63.054 230.75 64.04 229.56 64.04C228.404 64.04 227.503 63.734 226.857 63.122C226.245 62.51 225.939 61.728 225.939 60.776C225.939 59.11 226.381 57.529 227.265 56.033C228.149 54.503 229.203 53.279 230.427 52.361C233.147 50.355 235.255 49.352 236.751 49.352C238.995 49.42 240.117 50.219 240.117 51.749C240.117 52.293 239.879 52.837 239.403 53.381C238.927 53.891 238.485 54.146 238.077 54.146C237.669 54.146 237.108 53.789 236.394 53.075C235.68 52.361 234.898 52.004 234.048 52.004C233.198 52.004 232.501 52.361 231.957 53.075C231.413 53.755 231.141 54.639 231.141 55.727C231.141 57.495 232.076 58.379 233.946 58.379C234.694 58.379 235.306 58.192 235.782 57.818C236.292 57.444 236.649 57.036 236.853 56.594C237.431 55.438 237.958 54.86 238.434 54.86C238.842 54.86 239.046 55.064 239.046 55.472ZM244.728 57.614C244.728 57.07 245.255 56.186 246.309 54.962C247.363 53.704 248.213 53.075 248.859 53.075C249.539 53.075 250.032 53.33 250.338 53.84C250.678 54.35 250.882 54.911 250.95 55.523C251.018 56.135 251.205 56.696 251.511 57.206C251.851 57.716 252.327 57.971 252.939 57.971C253.585 57.971 254.146 57.699 254.622 57.155C255.132 56.577 255.54 55.948 255.846 55.268C256.152 54.554 256.56 53.925 257.07 53.381C257.58 52.803 258.073 52.514 258.549 52.514C259.059 52.514 259.416 52.718 259.62 53.126C261.728 57.648 263.87 59.909 266.046 59.909C266.386 59.909 266.692 59.858 266.964 59.756C267.236 59.654 267.44 59.603 267.576 59.603C267.984 59.603 268.188 59.926 268.188 60.572C268.188 61.728 267.576 62.765 266.352 63.683C265.162 64.601 263.938 65.06 262.68 65.06C261.422 65.06 260.351 64.652 259.467 63.836C258.617 63.02 258.022 62.187 257.682 61.337C257.376 60.453 257.138 59.603 256.968 58.787C256.832 57.971 256.679 57.563 256.509 57.563C256.237 57.563 255.693 58.107 254.877 59.195C254.095 60.249 253.194 61.32 252.174 62.408C251.188 63.496 250.304 64.04 249.522 64.04C248.706 63.938 248.06 63.53 247.584 62.816C247.108 62.136 246.802 61.422 246.666 60.674C246.36 58.634 245.714 57.614 244.728 57.614ZM258.158 46.343C258.158 45.663 258.702 45.153 259.79 44.813C261.456 44.099 264.176 42.994 267.95 41.498C268.63 36.33 269.65 33.746 271.01 33.746C271.894 33.746 272.336 35.157 272.336 37.979C272.336 38.795 272.319 39.407 272.285 39.815C277.453 37.843 280.921 36.636 282.689 36.194C284.457 35.752 285.868 35.531 286.922 35.531C288.52 35.531 289.319 36.109 289.319 37.265C289.319 37.639 289.081 37.945 288.605 38.183C286.497 39.237 285.188 39.764 284.678 39.764C284.576 39.764 284.406 39.696 284.168 39.56C283.93 39.39 283.658 39.305 283.352 39.305C283.046 39.305 282.417 39.424 281.465 39.662C279.527 40.172 276.348 41.158 271.928 42.62C271.52 45.272 270.925 47.176 270.143 48.332C270.279 52.208 270.789 54.826 271.673 56.186C272.081 56.832 272.659 57.393 273.407 57.869C274.189 58.345 275.141 58.583 276.263 58.583C277.385 58.583 278.49 58.073 279.578 57.053C279.782 56.849 279.952 56.747 280.088 56.747C280.36 56.747 280.496 56.968 280.496 57.41C280.496 58.838 279.544 60.283 277.64 61.745C275.736 63.173 273.917 63.887 272.183 63.887C268.749 63.887 267.032 61.099 267.032 55.523C267.032 52.021 267.236 48.247 267.644 44.201C264.822 45.289 262.748 46.173 261.422 46.853C260.062 47.533 259.263 47.873 259.025 47.873C258.787 47.873 258.583 47.703 258.413 47.363C258.243 47.023 258.158 46.683 258.158 46.343ZM292.138 55.472L291.934 56.9C291.934 57.512 292.189 58.158 292.699 58.838C293.243 59.484 293.872 59.807 294.586 59.807C295.13 59.807 295.572 59.688 295.912 59.45C296.66 58.94 297.119 58.6 297.289 58.43C297.493 58.226 297.799 58.124 298.207 58.124C298.649 58.124 298.87 58.277 298.87 58.583C298.87 58.923 298.071 59.994 296.473 61.796C295.963 62.374 295.215 62.986 294.229 63.632C293.243 64.278 292.359 64.601 291.577 64.601C290.829 64.601 290.251 64.465 289.843 64.193C289.469 63.955 289.197 63.564 289.027 63.02C288.823 62.272 288.721 61.354 288.721 60.266C288.721 60.13 288.636 60.062 288.466 60.062C288.296 60.062 287.905 60.402 287.293 61.082C285.389 63.054 283.842 64.04 282.652 64.04C281.496 64.04 280.595 63.734 279.949 63.122C279.337 62.51 279.031 61.728 279.031 60.776C279.031 59.11 279.473 57.529 280.357 56.033C281.241 54.503 282.295 53.279 283.519 52.361C286.239 50.355 288.347 49.352 289.843 49.352C292.087 49.42 293.209 50.219 293.209 51.749C293.209 52.293 292.971 52.837 292.495 53.381C292.019 53.891 291.577 54.146 291.169 54.146C290.761 54.146 290.2 53.789 289.486 53.075C288.772 52.361 287.99 52.004 287.14 52.004C286.29 52.004 285.593 52.361 285.049 53.075C284.505 53.755 284.233 54.639 284.233 55.727C284.233 57.495 285.168 58.379 287.038 58.379C287.786 58.379 288.398 58.192 288.874 57.818C289.384 57.444 289.741 57.036 289.945 56.594C290.523 55.438 291.05 54.86 291.526 54.86C291.934 54.86 292.138 55.064 292.138 55.472Z" fill="black"/>
<path d="M65.268 3.79944C67.3536 3.79944 69 5.44593 69 7.53144C69 9.6171 67.3535 11.2634 65.268 11.2634C63.1825 11.2634 61.536 9.61695 61.536 7.53144C61.4262 5.44578 63.1825 3.79944 65.268 3.79944V3.79944Z" fill="#C13535"/>
<path d="M66.5858 39.5822C66.476 42.6555 65.927 45.7293 64.8296 48.6927C64.2806 49.5711 63.842 50.4489 63.4028 51.4371C63.293 52.8639 63.4028 54.4005 63.6224 55.828C63.842 57.4745 63.0734 59.011 62.3054 61.6457C61.3177 65.0484 56.7073 66.8046 56.7073 66.8046L56.0485 67.134L55.8289 67.9026C55.0603 70.4274 51.7674 78.8792 44.523 83.7086C41.34 85.7943 34.8635 83.5988 31.0216 83.3792C30.802 83.3792 30.5824 83.1596 30.5824 82.94C30.5824 82.8302 30.6922 82.6106 30.802 82.6106C32.3387 81.7322 35.0831 80.3054 34.9733 79.6472C34.8635 78.9884 34.0949 78.9884 33.2171 79.0982C32.5583 79.0982 31.6805 79.3178 30.4727 79.4276C27.6191 79.8668 23.338 80.525 20.5936 79.6472C17.4106 78.6596 15.1054 71.1955 14.2269 68.3414C13.5681 66.2557 13.3485 65.4877 12.2511 65.1584L12.0321 65.0486C9.06874 64.28 6.43405 62.6336 4.34839 60.4387C2.81176 58.4629 3.14117 54.9505 3.79939 52.9746L3.90978 52.6446C4.34898 51.7662 4.45878 50.6688 4.23918 49.6812L0.507184 42.217C0.0679883 41.3386 -0.261416 38.485 0.287586 37.6072C1.385 35.8509 4.67849 33.8752 6.76354 31.6796C5.11705 36.7287 3.25112 44.3025 5.11705 47.4857C7.532 51.8766 10.6053 53.7425 14.9962 53.7425C16.9719 53.7425 20.2648 52.8641 24.1066 51.7667C27.6191 50.7791 31.6805 49.681 33.6563 49.681C35.6321 49.681 39.6935 50.7784 43.206 51.7667C47.0478 52.8641 50.3407 53.7425 52.3165 53.7425C56.7074 53.7425 59.7806 51.7667 62.1956 47.4857C63.7322 44.7412 61.976 36.5091 60.6589 31.6796C62.5244 33.9849 66.5859 37.4973 66.5859 39.5823L66.5858 39.5822Z" fill="black"/>
<path d="M62.5251 24.2159C62.5251 24.8748 61.9761 25.4232 61.3179 25.4232H5.88572C5.22691 25.4232 4.6785 24.8742 4.6785 24.2159C4.6785 21.3623 6.87387 19.057 9.72754 19.057H57.3663C60.2199 19.057 62.5252 21.3617 62.5252 24.2159H62.5251Z" fill="black"/>
<path d="M51.6578 15.215H14.5569C16.7523 10.934 22.4602 2.70183 35.3032 0.28687C44.7425 -1.13995 55.1699 3.14054 58.1334 4.67716C58.0236 5.11636 57.5844 7.09212 57.5844 7.53083C54.9497 7.20143 51.4373 7.09164 50.4497 10.6041C50.2301 11.0439 49.9013 12.251 51.6575 15.2152L51.6578 15.215Z" fill="#C13535"/>
<path d="M55.4994 29.3753H11.7022C9.28725 35.742 7.42117 43.8643 8.51924 45.6211C10.495 49.1335 12.4708 49.9021 14.8859 49.9021C17.6303 49.5727 20.2644 48.9145 22.899 48.0361C26.8505 46.9386 31.0219 45.8407 33.5461 45.8407C36.0709 45.8407 40.1317 46.9381 44.1932 48.0361C46.8279 48.9145 49.5717 49.4629 52.3161 49.9021C54.8409 49.9021 56.707 49.1335 58.6828 45.6211C59.7796 43.755 57.8038 35.7426 55.4992 29.3753H55.4994ZM23.3372 42.2178C21.2516 42.2178 19.4954 40.4616 19.4954 38.3759C19.4954 36.2903 21.2516 34.5341 23.3372 34.5341C25.4229 34.5341 27.1791 36.2903 27.1791 38.3759C27.1791 40.5713 25.4229 42.2178 23.3372 42.2178ZM42.4362 42.2178C40.3506 42.2178 38.5944 40.4616 38.5944 38.3759C38.5944 36.2903 40.3506 34.5341 42.4362 34.5341C44.5219 34.5341 46.2781 36.2903 46.2781 38.3759C46.2781 40.5713 44.5219 42.2178 42.4362 42.2178Z" fill="black"/>
</svg>
